<svg xmlns="http://www.w3.org/2000/svg" xmlns:xlink="http://www.w3.org/1999/xlink" width="500" height="359" fill="none" xmlns:v="https://vecta.io/nano"><path fill="#fff" d="M0 0h500v358H0z"/><path d="M283.411 6.658c-55.33.605-68.362 49.267-108.108 96.15S83.887 156.046 83.9 204.531c.014 48.584 38.551 85.177 86.936 89.77 134.039 12.724 224.37-87.887 223.866-159.85-.509-71.429-39.834-128.576-111.291-127.793zM170.28 59.361c7.493 7.944-.19 27.454-17.161 43.575s-36.805 22.75-44.298 14.806.19-27.454 17.16-43.576 36.805-22.749 44.299-14.804z" fill="#fafafb"/><g fill="#fcb040"><path d="M226.834 170.451c-35.888-16.774-44.937-34.495-41.438-45.484 2.775-8.72 12.893-12.882 25.778-10.598l-1.675 9.392c-7.744-1.37-13.763.272-14.98 4.09-1.888 5.934 6.241 19.876 36.38 33.963l-4.065 8.637h0zm34.38 0l-4.065-8.637c30.14-14.087 38.268-28.03 36.379-33.963-1.216-3.818-7.236-5.462-14.978-4.09l-1.675-9.392c12.885-2.284 23 1.878 25.777 10.598 3.499 10.99-5.55 28.71-41.438 45.484h0zm-20.864 36.75h8.4v-49.35h-8.4v49.35z"/><path d="M197.301 103.25l23.305 63.125a25.51 25.51 0 0 0 6.349 9.646 25.52 25.52 0 0 0 9.949 5.861c3.721 1.168 7.66 1.468 11.514.877s7.523-2.057 10.723-4.287c4.281-2.981 7.546-7.203 9.355-12.097l23.305-63.125h-94.5zm52.412 103.95h-10.324c-9.327 0-16.888 7.521-16.888 16.8h44.1c0-9.279-7.562-16.8-16.888-16.8"/></g><path d="M219.35 232.4h49.35V224h-49.35v8.4z" fill="#d18a2c"/><path d="M374.699 49.36c.011.684-.183 1.356-.557 1.928a3.42 3.42 0 0 1-1.541 1.285c-.734.306-1.551.348-2.311.117s-1.417-.718-1.858-1.38a3.42 3.42 0 0 1 .447-4.333 3.42 3.42 0 0 1 1.738-.919c.657-.13 1.338-.063 1.958.19a3.42 3.42 0 0 1 1.529 1.237 3.43 3.43 0 0 1 .595 1.874h0zm29.647 0a3.43 3.43 0 0 1-.575 1.901c-.376.563-.91 1.002-1.535 1.261a3.42 3.42 0 0 1-1.976.195c-.664-.132-1.274-.458-1.752-.936-.318-.317-.571-.694-.743-1.109a3.42 3.42 0 0 1-.002-2.618 3.42 3.42 0 0 1 2.493-2.046 3.42 3.42 0 0 1 3.511 1.452c.376.562.578 1.223.579 1.899v.001zm-29.647 29.648c0 .45-.088.895-.26 1.31a3.42 3.42 0 0 1-.742 1.11 3.41 3.41 0 0 1-1.11.741 3.42 3.42 0 0 1-1.31.259c-.676 0-1.337-.201-1.9-.577s-1-.91-1.258-1.535-.326-1.312-.194-1.976a3.42 3.42 0 0 1 .936-1.751c.478-.478 1.087-.804 1.751-.936s1.351-.064 1.975.195a3.42 3.42 0 0 1 1.535 1.259c.376.562.577 1.223.577 1.899h0zm29.647 0c.001.792-.273 1.559-.775 2.171a3.42 3.42 0 0 1-4.257.848 3.42 3.42 0 0 1-1.548-1.708c-.193-.467-.281-.971-.256-1.476a3.41 3.41 0 0 1 .4-1.444c.238-.446.572-.833.978-1.135a3.42 3.42 0 0 1 1.37-.608c.495-.099 1.007-.086 1.497.036a3.42 3.42 0 0 1 1.339.673 3.41 3.41 0 0 1 .922 1.18 3.42 3.42 0 0 1 .33 1.462h0zm29.648 0c0 .449-.089.894-.26 1.309s-.424.792-.742 1.11a3.41 3.41 0 0 1-1.109.741 3.42 3.42 0 0 1-2.618 0 3.41 3.41 0 0 1-1.109-.741c-.318-.318-.57-.695-.742-1.11s-.26-.86-.26-1.309a3.42 3.42 0 0 1 3.42-3.42 3.42 3.42 0 0 1 3.42 3.42h0zm29.648 0a3.42 3.42 0 0 1-3.42 3.42 3.42 3.42 0 0 1-3.42-3.42 3.42 3.42 0 0 1 3.42-3.42 3.42 3.42 0 0 1 3.42 3.42h0zm-88.943 29.648a3.42 3.42 0 0 1-.26 1.31 3.41 3.41 0 0 1-.742 1.11c-.318.318-.695.57-1.11.742a3.41 3.41 0 0 1-1.31.259 3.42 3.42 0 0 1-1.9-.577c-.562-.376-1-.91-1.258-1.535a3.42 3.42 0 0 1 .742-3.726 3.42 3.42 0 0 1 1.751-.936c.663-.132 1.351-.064 1.975.195s1.159.697 1.535 1.259.577 1.223.577 1.899h0zm29.647 0a3.42 3.42 0 0 1-2.11 3.161 3.42 3.42 0 0 1-1.977.195c-.663-.132-1.273-.457-1.751-.936-.318-.317-.571-.693-.743-1.108a3.4 3.4 0 0 1-.26-1.31c0-.906.361-1.776 1.002-2.418a3.43 3.43 0 0 1 2.417-1.004c.908 0 1.778.36 2.419 1.002.318.318.57.695.742 1.11a3.41 3.41 0 0 1 .261 1.308h0zm29.648 0c0 .45-.089.894-.26 1.309s-.424.792-.742 1.11a3.42 3.42 0 0 1-2.418 1.001 3.42 3.42 0 0 1-2.418-1.001c-.318-.318-.57-.695-.742-1.11s-.26-.859-.26-1.309a3.42 3.42 0 0 1 3.42-3.42 3.42 3.42 0 0 1 3.42 3.42h0zm29.648 0a3.42 3.42 0 0 1-3.42 3.42 3.42 3.42 0 0 1-3.42-3.42 3.42 3.42 0 0 1 3.42-3.42 3.42 3.42 0 0 1 3.42 3.42zm-59.296 29.648c0 .677-.2 1.339-.576 1.902a3.43 3.43 0 0 1-1.535 1.261c-.626.259-1.314.326-1.978.194a3.42 3.42 0 0 1-2.752-3.357c0-.907.36-1.777 1.001-2.419.478-.478 1.088-.805 1.751-.937s1.352-.065 1.978.194a3.42 3.42 0 0 1 1.535 1.261c.376.563.576 1.225.576 1.901h0zm29.648 0a3.42 3.42 0 0 1-.78 2.166c-.502.611-1.2 1.028-1.975 1.183s-1.58.035-2.278-.337-1.245-.973-1.549-1.703a3.42 3.42 0 0 1 .742-3.728c.478-.478 1.088-.805 1.751-.937s1.352-.065 1.978.194a3.42 3.42 0 0 1 1.535 1.261c.376.563.576 1.225.576 1.901h0zm29.648 0c0 .45-.089.894-.26 1.309s-.424.792-.742 1.11a3.42 3.42 0 0 1-2.418 1.001 3.42 3.42 0 0 1-2.418-1.001c-.318-.318-.57-.695-.742-1.11s-.26-.859-.26-1.309a3.42 3.42 0 0 1 3.42-3.42 3.42 3.42 0 0 1 3.42 3.42h0z" fill="#fcb040"/><path d="M378 5.776a5.78 5.78 0 0 1 .439-2.21c.291-.701.716-1.337 1.252-1.874A5.77 5.77 0 0 1 383.775 0c.758 0 1.509.149 2.21.439s1.337.715 1.873 1.252.962 1.173 1.252 1.873a5.78 5.78 0 0 1 .44 2.21c0 1.532-.608 3.001-1.691 4.084s-2.552 1.692-4.083 1.692-3.001-.608-4.084-1.691S378 7.307 378 5.776" fill="#fa5751"/><path d="M93.85 180.04L78.999 191.9 76 173l17.85 7.04zM75.5 80.501h147v-14h-147v14zM304.4 238h29.4v-14h-29.4v14zm13.65 29.4h60v-14h-60v14z" fill="#387ed1"/><g fill="#477ecb"><path d="M115.32 325.001h6.67v-1.172h-5.35v-3.709h4.922v-1.172h-4.922v-3.686h5.263v-1.172h-6.583v10.911zm12.119.17c1.81 0 3.004-1.108 3.217-2.557h-1.257c-.235.895-.98 1.427-1.96 1.427-1.492 0-2.45-1.236-2.45-3.132 0-1.854.98-3.069 2.45-3.069 1.108 0 1.768.683 1.96 1.429h1.257c-.213-1.534-1.513-2.558-3.239-2.558-2.216 0-3.686 1.747-3.686 4.24 0 2.451 1.406 4.22 3.708 4.22zm8.378 0c2.216 0 3.708-1.684 3.708-4.22 0-2.557-1.492-4.24-3.708-4.24s-3.707 1.683-3.707 4.24c0 2.536 1.492 4.22 3.707 4.22zm0-1.13c-1.683 0-2.45-1.449-2.45-3.09s.767-3.111 2.45-3.111 2.45 1.471 2.45 3.111-.766 3.09-2.45 3.09zm6.883-3.962c0-1.428.885-2.239 2.089-2.239 1.167 0 1.875.762 1.875 2.046v5.115h1.257v-5.2c0-2.088-1.113-3.09-2.77-3.09-1.236 0-2.003.555-2.386 1.386h-.107v-1.279h-1.214v8.183h1.256v-4.922zm10.842 5.092c2.216 0 3.707-1.684 3.707-4.22 0-2.557-1.491-4.24-3.707-4.24s-3.707 1.683-3.707 4.24c0 2.536 1.491 4.22 3.707 4.22zm0-1.13c-1.683 0-2.45-1.449-2.45-3.09s.767-3.111 2.45-3.111 2.45 1.471 2.45 3.111-.767 3.09-2.45 3.09zm5.626.96h1.258v-5.115c0-1.199.873-2.046 1.853-2.046.954 0 1.62.624 1.62 1.556v5.605h1.278v-5.327c0-1.055.66-1.834 1.811-1.834.895 0 1.662.475 1.662 1.684v5.477h1.257v-5.477c0-1.923-1.033-2.813-2.493-2.813-1.172 0-2.029.539-2.45 1.386h-.085c-.405-.873-1.119-1.386-2.195-1.386-1.065 0-1.854.513-2.195 1.386h-.106v-1.279h-1.215v8.183zm13.038 0h1.257v-8.183h-1.257v8.183zm.639-9.546c.49 0 .895-.384.895-.853s-.405-.851-.895-.851-.895.382-.895.851.405.853.895.853zm6.244 9.716c1.811 0 3.004-1.108 3.217-2.557h-1.257c-.234.895-.98 1.427-1.96 1.427-1.492 0-2.45-1.236-2.45-3.132 0-1.854.98-3.069 2.45-3.069 1.108 0 1.768.683 1.96 1.429h1.257c-.213-1.534-1.512-2.558-3.238-2.558-2.216 0-3.686 1.747-3.686 4.24 0 2.451 1.406 4.22 3.707 4.22zm8.848-9.909h3.43v9.739h1.321v-9.739h3.43v-1.172h-8.181v1.172zm10.05 9.739h1.257v-8.183h-1.257v8.183zm.639-9.546c.49 0 .895-.384.895-.853s-.405-.851-.895-.851-.895.382-.895.851.405.853.895.853zm2.92 9.546h1.257v-5.115c0-1.199.874-2.046 1.854-2.046.954 0 1.619.624 1.619 1.556v5.605h1.279v-5.327c0-1.055.66-1.834 1.811-1.834.895 0 1.662.475 1.662 1.684v5.477h1.257v-5.477c0-1.923-1.033-2.813-2.493-2.813-1.172 0-2.029.539-2.45 1.386h-.085c-.405-.873-1.119-1.386-2.195-1.386-1.065 0-1.854.513-2.195 1.386h-.106v-1.279h-1.215v8.183zm16.468.17c1.662 0 2.876-.832 3.26-2.068l-1.215-.341c-.319.853-1.06 1.279-2.045 1.279-1.476 0-2.493-.954-2.552-2.706h5.94v-.532c0-3.047-1.811-4.092-3.516-4.092-2.216 0-3.686 1.747-3.686 4.262s1.449 4.198 3.814 4.198zm-2.552-4.923c.086-1.273.986-2.408 2.424-2.408 1.364 0 2.237 1.023 2.237 2.408h-4.661zm13.647-1.598c-.394-1.161-1.278-1.939-2.897-1.939-1.726 0-3.005.98-3.005 2.365 0 1.13.672 1.886 2.174 2.237l1.363.32c.826.192 1.215.586 1.215 1.151 0 .703-.746 1.279-1.918 1.279-1.028 0-1.672-.443-1.896-1.322l-1.193.299c.293 1.391 1.438 2.131 3.11 2.131 1.902 0 3.197-1.039 3.197-2.45 0-1.14-.714-1.86-2.174-2.217l-1.214-.298c-.97-.24-1.407-.565-1.407-1.194 0-.703.746-1.213 1.748-1.213 1.097 0 1.55.607 1.768 1.172l1.129-.321zm12.397-1.832h1.278c-.058-1.646-1.576-2.876-3.686-2.876-2.088 0-3.728 1.215-3.728 3.047 0 1.47 1.065 2.343 2.769 2.833l1.343.384c1.15.319 2.173.724 2.173 1.811 0 1.193-1.15 1.981-2.663 1.981-1.3 0-2.451-.574-2.557-1.81h-1.364c.128 1.79 1.577 3.004 3.921 3.004 2.514 0 3.942-1.386 3.942-3.154 0-2.046-1.939-2.706-3.069-3.004l-1.108-.299c-.809-.213-2.109-.638-2.109-1.81 0-1.044.959-1.811 2.408-1.811 1.321 0 2.322.628 2.45 1.704zm6.987 0h-1.747v-1.959h-1.257v1.959h-1.236v1.065h1.236v5.115c0 1.427 1.151 2.108 2.216 2.108.469 0 .767-.084.937-.148l-.255-1.129c-.107.021-.277.063-.554.063-.554 0-1.087-.17-1.087-1.235v-4.774h1.747v-1.065zm4.299 8.374c1.427 0 2.173-.768 2.429-1.3h.064v1.109h1.257v-5.391c0-2.6-1.982-2.899-3.026-2.899-1.235 0-2.642.426-3.281 1.918l1.193.426c.277-.597.932-1.235 2.131-1.235 1.156 0 1.726.612 1.726 1.661v.043c0 .607-.618.555-2.11.746-1.518.198-3.174.533-3.174 2.408 0 1.598 1.236 2.514 2.791 2.514zm.192-1.129c-1.002 0-1.726-.448-1.726-1.322 0-.959.873-1.257 1.853-1.385.533-.064 1.961-.213 2.174-.469v1.151c0 1.023-.81 2.025-2.301 2.025zm5.852.938h1.257v-5.179c0-1.108.874-1.918 2.067-1.918.336 0 .682.064.767.086v-1.279l-.66-.02c-.98 0-1.833.553-2.131 1.363h-.085v-1.236h-1.215v8.183zm9.652-8.183h-1.747v-1.959h-1.257v1.959h-1.236v1.065h1.236v5.115c0 1.427 1.151 2.108 2.216 2.108.469 0 .767-.084.938-.148l-.256-1.129c-.107.021-.277.063-.554.063-.554 0-1.087-.17-1.087-1.235v-4.774h1.747v-1.065zm7.048 4.836c0 1.534-1.172 2.238-2.11 2.238-1.044 0-1.79-.766-1.79-1.96v-5.114h-1.257v5.199c0 2.088 1.108 3.089 2.642 3.089 1.236 0 2.046-.66 2.429-1.491h.086v1.386h1.257v-8.183h-1.257v4.836zm3.559 6.414h1.257v-4.325h.107c.277.448.809 1.428 2.386 1.428 2.046 0 3.473-1.642 3.473-4.241 0-2.578-1.427-4.219-3.494-4.219-1.598 0-2.088.981-2.365 1.407h-.149v-1.3h-1.215v11.25zm1.236-7.159c0-1.833.81-3.069 2.344-3.069 1.598 0 2.386 1.343 2.386 3.069 0 1.747-.81 3.132-2.386 3.132-1.513 0-2.344-1.279-2.344-3.132zm15.447 4.262c2.216 0 3.708-1.684 3.708-4.22 0-2.557-1.492-4.24-3.708-4.24s-3.707 1.683-3.707 4.24c0 2.536 1.491 4.22 3.707 4.22zm0-1.13c-1.683 0-2.45-1.449-2.45-3.09s.767-3.111 2.45-3.111 2.451 1.471 2.451 3.111-.767 3.09-2.451 3.09zm9.27-7.223h-1.832v-.83c0-.81.341-1.236 1.172-1.236.362 0 .575.084.703.127l.362-1.087c-.192-.085-.575-.212-1.193-.212-1.172 0-2.301.702-2.301 2.108v1.13h-1.321v1.065h1.321v7.118h1.257v-7.118h1.832v-1.065zm9.539 0h-1.747v-1.959h-1.257v1.959h-1.236v1.065h1.236v5.115c0 1.427 1.15 2.108 2.216 2.108.468 0 .767-.084.937-.148l-.256-1.129c-.106.021-.277.063-.554.063-.553 0-1.086-.17-1.086-1.235v-4.774h1.747v-1.065zm3.324 3.261c0-1.428.911-2.239 2.152-2.239 1.182 0 1.896.746 1.896 2.046v5.115h1.257v-5.2c0-2.104-1.118-3.09-2.791-3.09-1.289 0-2.024.539-2.408 1.386h-.106v-4.007h-1.257v10.911h1.257v-4.922zm11.035 5.092c1.662 0 2.877-.832 3.26-2.068l-1.214-.341c-.32.853-1.06 1.279-2.046 1.279-1.475 0-2.492-.954-2.551-2.706h5.939v-.532c0-3.047-1.811-4.092-3.515-4.092-2.216 0-3.686 1.747-3.686 4.262s1.448 4.198 3.813 4.198zm-2.551-4.923c.085-1.273.985-2.408 2.424-2.408 1.363 0 2.237 1.023 2.237 2.408h-4.661zm11.303-6.158l3.942 6.414v4.497h1.321v-4.497l3.942-6.414h-1.513l-3.026 5.094h-.127l-3.026-5.094h-1.513zm13.016 11.081c1.662 0 2.876-.832 3.26-2.068l-1.215-.341c-.319.853-1.06 1.279-2.045 1.279-1.475 0-2.493-.954-2.551-2.706h5.939v-.532c0-3.047-1.811-4.092-3.516-4.092-2.216 0-3.686 1.747-3.686 4.262s1.449 4.198 3.814 4.198zm-2.551-4.923c.085-1.273.985-2.408 2.423-2.408 1.364 0 2.237 1.023 2.237 2.408h-4.66zm10.259 4.944c1.427 0 2.173-.768 2.429-1.3h.064v1.109h1.257v-5.391c0-2.6-1.982-2.899-3.026-2.899-1.236 0-2.642.426-3.281 1.918l1.193.426c.277-.597.932-1.235 2.131-1.235 1.156 0 1.726.612 1.726 1.661v.043c0 .607-.618.555-2.11.746-1.518.198-3.174.533-3.174 2.408 0 1.598 1.235 2.514 2.791 2.514zm.192-1.129c-1.002 0-1.726-.448-1.726-1.322 0-.959.873-1.257 1.853-1.385.533-.064 1.961-.213 2.174-.469v1.151c0 1.023-.81 2.025-2.301 2.025zm5.852.938h1.257v-5.179c0-1.108.874-1.918 2.067-1.918.336 0 .682.064.767.086v-1.279l-.66-.02c-.98 0-1.833.553-2.131 1.363h-.085v-1.236h-1.215v8.183zm14.488-5.263h-4.773v1.171h4.773v-1.171zm6.409 5.263h6.882v-1.172h-5.071v-.086l2.45-2.62c1.875-2.008 2.429-2.946 2.429-4.155 0-1.683-1.363-3.026-3.281-3.026-1.912 0-3.366 1.299-3.366 3.217h1.257c0-1.241.804-2.066 2.066-2.066 1.183 0 2.088.724 2.088 1.875 0 1.007-.591 1.751-1.853 3.131l-3.601 3.942v.96zm12.64.148c2.408 0 3.793-2.039 3.793-5.603 0-3.537-1.406-5.604-3.793-5.604s-3.792 2.067-3.792 5.604c0 3.564 1.385 5.603 3.792 5.603zm0-1.172c-1.587 0-2.514-1.592-2.514-4.431s.937-4.453 2.514-4.453 2.514 1.619 2.514 4.453-.926 4.431-2.514 4.431zm5.817 1.024h6.882v-1.172h-5.071v-.086l2.45-2.62c1.875-2.008 2.429-2.946 2.429-4.155 0-1.683-1.363-3.026-3.281-3.026-1.912 0-3.366 1.299-3.366 3.217h1.257c0-1.241.804-2.066 2.066-2.066 1.183 0 2.089.724 2.089 1.875 0 1.007-.592 1.751-1.854 3.131l-3.601 3.942v.96zm12.64.148c2.408 0 3.793-2.039 3.793-5.603 0-3.537-1.406-5.604-3.793-5.604s-3.792 2.067-3.792 5.604c0 3.564 1.385 5.603 3.792 5.603zm0-1.172c-1.587 0-2.514-1.592-2.514-4.431s.938-4.453 2.514-4.453 2.514 1.619 2.514 4.453-.926 4.431-2.514 4.431zM103.473 312.3h-2.31l.013-.772c-.001-.14-.057-.274-.156-.373s-.232-.154-.372-.154H89.352a.5.5 0 0 0-.202.039.52.52 0 0 0-.171.114.53.53 0 0 0-.155.374l.013.772h-2.31c-.139 0-.273.056-.372.155a.53.53 0 0 0-.155.371c0 2.363.618 4.594 1.739 6.279 1.108 1.666 2.585 2.62 4.18 2.713.361.394.743.716 1.142.961v2.343h-.885a1.94 1.94 0 0 0-1.94 1.94v.884H90.2a.53.53 0 0 0-.528.527.52.52 0 0 0 .04.203c.027.064.065.122.114.171a.52.52 0 0 0 .374.154h9.6a.53.53 0 0 0 .358-.163c.095-.098.147-.229.147-.365s-.052-.267-.147-.365-.222-.157-.358-.162h-.037v-.884a1.94 1.94 0 0 0-1.94-1.94h-.885v-2.344a5.4 5.4 0 0 0 1.143-.96c1.594-.093 3.07-1.047 4.18-2.713 1.12-1.685 1.738-3.916 1.738-6.279a.53.53 0 0 0-.154-.372c-.099-.099-.233-.154-.373-.154h.001zm-14.856 6.22c-.925-1.39-1.468-3.207-1.551-5.165h1.83c.19 2.407.755 4.631 1.638 6.397l.44.798c-.877-.332-1.688-1.024-2.357-2.03zm10.092 8.54v.886h-7.418v-.884c0-.488.397-.886.885-.886h5.648c.488 0 .885.398.885.886v-.002zm-2.824-1.938h-1.77v-1.886a3.47 3.47 0 0 0 1.77 0v1.886zm.326-3.141a2.54 2.54 0 0 1-1.211.316c-.424-.003-.841-.111-1.212-.316-.413-.219-.813-.55-1.192-.983a.55.55 0 0 0-.067-.078 8.34 8.34 0 0 1-1.051-1.641c-.97-1.938-1.53-4.486-1.593-7.224h10.23c-.064 2.738-.624 5.287-1.593 7.225a8.34 8.34 0 0 1-1.051 1.641.5.5 0 0 0-.068.077c-.378.434-.778.764-1.192.983zm5.172-3.461c-.669 1.005-1.48 1.698-2.358 2.03l.44-.798c.884-1.766 1.449-3.99 1.639-6.397h1.83c-.083 1.958-.627 3.775-1.551 5.165zm-83.91 22.78h-2.31l.013-.772a.53.53 0 0 0-.528-.527H3.352a.5.5 0 0 0-.202.039.52.52 0 0 0-.171.114.53.53 0 0 0-.115.172c-.027.064-.04.132-.04.202l.013.772H.527c-.14 0-.273.056-.372.155a.53.53 0 0 0-.155.371c0 2.363.618 4.594 1.739 6.279 1.108 1.666 2.585 2.62 4.18 2.713.361.394.743.716 1.142.961v2.343h-.885a1.94 1.94 0 0 0-1.94 1.94v.884H4.2a.52.52 0 0 0-.291.091.53.53 0 0 0-.223.539c.02.101.069.195.141.27.099.099.233.154.373.154h9.6c.136-.005.264-.064.358-.162a.53.53 0 0 0 0-.73c-.094-.098-.223-.157-.358-.162h-.037v-.884a1.94 1.94 0 0 0-1.94-1.94h-.885v-2.344a5.4 5.4 0 0 0 1.143-.96c1.594-.093 3.07-1.047 4.18-2.713 1.12-1.685 1.738-3.916 1.738-6.279 0-.139-.055-.273-.154-.372s-.233-.154-.373-.154h.001zm-14.856 6.22c-.925-1.39-1.468-3.207-1.551-5.165h1.83c.19 2.407.755 4.631 1.638 6.397l.44.798c-.877-.332-1.688-1.024-2.357-2.03zm10.092 8.54v.886H5.291v-.884c0-.488.397-.886.885-.886h5.648c.488 0 .885.398.885.886v-.002zm-2.824-1.938h-1.77v-1.886a3.47 3.47 0 0 0 1.77 0v1.886zm.326-3.141a2.54 2.54 0 0 1-1.211.316c-.424-.003-.84-.111-1.212-.316-.413-.219-.813-.55-1.192-.983a.55.55 0 0 0-.067-.078 8.34 8.34 0 0 1-1.051-1.641c-.97-1.938-1.53-4.486-1.593-7.224h10.23c-.064 2.738-.624 5.287-1.593 7.225a8.34 8.34 0 0 1-1.051 1.641.5.5 0 0 0-.068.077c-.378.434-.778.764-1.192.983zm5.172-3.461c-.669 1.005-1.48 1.698-2.358 2.03l.44-.798c.884-1.766 1.449-3.99 1.639-6.397h1.83c-.083 1.958-.626 3.775-1.55 5.165h-.001zm22.592-3.262h-1.3v8.586h-.106l-5.966-8.586h-1.278v10.909h1.321v-8.565h.107l5.945 8.565h1.278v-10.909z"/><use xlink:href="#B"/><use xlink:href="#C"/><path d="M60.853 353.675h-1.364l-.064.597c-.154 1.444-.458 2.882-.597 3.558h.959c.256-.724.799-2.365.98-3.579l.085-.576zm6.718 1.492h3.942c2.578 0 3.644-1.257 3.644-2.898 0-1.726-1.193-2.663-2.195-2.727v-.107c.938-.255 1.768-.873 1.768-2.279 0-1.599-1.065-2.898-3.345-2.898h-3.814v10.909zm1.321-1.172v-3.793h2.685c1.428 0 2.322.959 2.322 2.067 0 .959-.66 1.726-2.386 1.726h-2.621zm0-4.943v-3.622h2.493c1.449 0 2.088.767 2.088 1.726 0 1.15-.937 1.896-2.131 1.896h-2.45z"/><use xlink:href="#B" x="36.709"/><use xlink:href="#C" x="36.709"/><path d="M97.562 353.675h-1.364l-.064.597c-.155 1.444-.458 2.882-.597 3.558h.959c.256-.724.799-2.365.98-3.579l.085-.576zm6.718-9.417v10.909h1.236v-8.288h.106l3.409 8.288h1.194l3.409-8.288h.106v8.288h1.236v-10.909h-1.577l-3.707 9.055h-.128l-3.707-9.055h-1.577zm22.123 3.409c-.405-2.237-2.194-3.558-4.389-3.558-2.791 0-4.815 2.152-4.815 5.603s2.024 5.604 4.815 5.604c2.195 0 3.984-1.321 4.389-3.558h-1.321c-.319 1.513-1.619 2.322-3.068 2.322-1.982 0-3.537-1.534-3.537-4.368s1.555-4.368 3.537-4.368c1.449 0 2.749.81 3.068 2.323h1.321zm2.686-3.409h-1.555l3.515 5.454-3.515 5.455h1.555l2.813-4.453h.085l2.812 4.453h1.556l-3.431-5.455 3.431-5.454h-1.556l-2.812 4.538h-.085l-2.813-4.538zm17.721 4.868h-4.773v1.172h4.773v-1.172zm6.601 6.041h3.942c2.578 0 3.643-1.257 3.643-2.898 0-1.726-1.193-2.663-2.194-2.727v-.107c.937-.255 1.768-.873 1.768-2.279 0-1.599-1.065-2.898-3.345-2.898h-3.814v10.909zm1.321-1.172v-3.793h2.685c1.427 0 2.322.959 2.322 2.067 0 .959-.661 1.726-2.386 1.726h-2.621zm0-4.943v-3.622h2.493c1.449 0 2.088.767 2.088 1.726 0 1.15-.938 1.896-2.131 1.896h-2.45zm11.695 6.285c1.662 0 2.876-.831 3.26-2.066l-1.215-.341c-.319.852-1.06 1.278-2.045 1.278-1.476 0-2.493-.953-2.552-2.706h5.939v-.533c0-3.046-1.811-4.09-3.515-4.09-2.216 0-3.686 1.747-3.686 4.261s1.449 4.197 3.814 4.197zm-2.552-4.922c.085-1.273.986-2.407 2.424-2.407 1.363 0 2.237 1.023 2.237 2.407h-4.661zm13.647-1.598c-.394-1.161-1.278-1.938-2.898-1.938-1.725 0-3.004.98-3.004 2.365 0 1.129.671 1.885 2.174 2.237l1.363.319c.826.192 1.215.586 1.215 1.151 0 .703-.746 1.278-1.918 1.278-1.028 0-1.673-.442-1.896-1.321l-1.193.299c.293 1.39 1.438 2.13 3.11 2.13 1.902 0 3.196-1.038 3.196-2.45 0-1.14-.713-1.859-2.173-2.216l-1.214-.298c-.97-.24-1.407-.565-1.407-1.193 0-.703.746-1.215 1.747-1.215 1.098 0 1.551.607 1.769 1.172l1.129-.32zm5.6-1.832h-1.747v-1.96h-1.257v1.96h-1.236v1.065h1.236v5.114c0 1.428 1.15 2.109 2.216 2.109.468 0 .767-.085.937-.149l-.256-1.129c-.106.021-.277.064-.554.064-.554 0-1.086-.171-1.086-1.236v-4.773h1.747v-1.065zm6.28 8.182h1.321v-4.261h2.386l.277-.006 2.302 4.267h1.534l-2.467-4.507c1.391-.474 2.041-1.608 2.041-3.057 0-1.928-1.151-3.345-3.708-3.345h-3.686v10.909zm1.321-5.455v-4.282h2.323c1.768 0 2.45.863 2.45 2.173s-.682 2.109-2.429 2.109h-2.344z"/><use xlink:href="#D"/><path d="M211.027 346.985h-1.747v-1.96h-1.257v1.96h-1.236v1.065h1.236v5.114c0 1.428 1.15 2.109 2.216 2.109.469 0 .767-.085.937-.149l-.255-1.129c-.107.021-.277.064-.554.064-.554 0-1.087-.171-1.087-1.236v-4.773h1.747v-1.065z"/><use xlink:href="#E"/><path d="M221.37 355.167h1.257v-8.182h-1.257v8.182zm.64-9.546c.49 0 .894-.383.894-.852s-.404-.852-.894-.852-.895.383-.895.852.404.852.895.852zm4.177-1.363h-1.257v10.909h1.257v-10.909zm6.692 10.909h3.941c2.579 0 3.644-1.257 3.644-2.898 0-1.726-1.193-2.663-2.195-2.727v-.107c.938-.255 1.769-.873 1.769-2.279 0-1.599-1.066-2.898-3.345-2.898h-3.814v10.909zm1.321-1.172v-3.793h2.684c1.428 0 2.323.959 2.323 2.067 0 .959-.661 1.726-2.387 1.726h-2.62zm0-4.943v-3.622h2.493c1.448 0 2.088.767 2.088 1.726 0 1.15-.938 1.896-2.131 1.896h-2.45zm8.264 6.115h1.257v-5.178c0-1.108.874-1.917 2.067-1.917.336 0 .682.064.767.085v-1.278l-.661-.022c-.98 0-1.832.554-2.13 1.364h-.085v-1.236h-1.215v8.182zm8.656.17c2.216 0 3.707-1.683 3.707-4.218 0-2.557-1.491-4.24-3.707-4.24s-3.707 1.683-3.707 4.24c0 2.535 1.491 4.218 3.707 4.218zm0-1.129c-1.683 0-2.45-1.449-2.45-3.089s.767-3.111 2.45-3.111 2.45 1.47 2.45 3.111-.767 3.089-2.45 3.089zm5.626.959h1.257v-3.063l.879-.815 3.063 3.878h1.598l-3.713-4.688 3.457-3.494h-1.555l-3.579 3.644h-.15v-6.371h-1.257v10.909z"/><use xlink:href="#D" x="65.83"/><path d="M273.299 355.167h1.257v-5.178c0-1.108.874-1.917 2.067-1.917.335 0 .682.064.767.085v-1.278l-.661-.022c-.98 0-1.832.554-2.13 1.364h-.085v-1.236h-1.215v8.182z"/><use xlink:href="#E" x="65.962"/><path d="M290.635 358.406c1.96 0 3.537-.895 3.537-3.005v-8.416h-1.215v1.3h-.128c-.277-.426-.788-1.406-2.386-1.406-2.067 0-3.494 1.64-3.494 4.154 0 2.557 1.491 4.006 3.473 4.006 1.598 0 2.109-.937 2.386-1.385h.107v1.662c0 1.364-.959 1.982-2.28 1.982-1.486 0-2.008-.783-2.344-1.236l-1.001.703c.511.857 1.518 1.641 3.345 1.641zm-.043-4.496c-1.577 0-2.386-1.193-2.386-2.898 0-1.662.788-3.004 2.386-3.004 1.534 0 2.344 1.236 2.344 3.004 0 1.811-.831 2.898-2.344 2.898zm9.311 1.427c1.662 0 2.877-.831 3.26-2.066l-1.214-.341c-.32.852-1.06 1.278-2.046 1.278-1.475 0-2.493-.953-2.551-2.706h5.939v-.533c0-3.046-1.811-4.09-3.516-4.09-2.215 0-3.686 1.747-3.686 4.261s1.449 4.197 3.814 4.197zm-2.551-4.922c.085-1.273.985-2.407 2.423-2.407 1.364 0 2.238 1.023 2.238 2.407h-4.661z"/><use xlink:href="#E" x="96.504"/><path d="M319.728 355.167h1.236l1.789-6.286h.128l1.79 6.286h1.236l2.493-8.182h-1.321l-1.769 6.243h-.085l-1.726-6.243h-1.342l-1.747 6.264h-.085l-1.769-6.264h-1.321l2.493 8.182zm12.741.192c1.428 0 2.174-.767 2.429-1.3h.064v1.108h1.257v-5.391c0-2.599-1.981-2.897-3.025-2.897-1.236 0-2.642.426-3.281 1.917l1.193.426c.277-.596.932-1.236 2.13-1.236 1.156 0 1.726.613 1.726 1.662v.043c0 .607-.618.554-2.109.746-1.518.197-3.175.532-3.175 2.407 0 1.598 1.236 2.515 2.791 2.515zm.192-1.13c-1.001 0-1.726-.447-1.726-1.321 0-.958.874-1.257 1.854-1.385.533-.064 1.96-.213 2.173-.468v1.15c0 1.023-.809 2.024-2.301 2.024zm5.853.938h1.257v-5.178c0-1.108.874-1.917 2.067-1.917.335 0 .682.064.767.085v-1.278l-.661-.022c-.98 0-1.832.554-2.13 1.364h-.086v-1.236h-1.214v8.182zm8.421.17c1.577 0 2.11-.98 2.387-1.427h.149v1.257h1.214v-10.909h-1.257v4.027h-.106c-.277-.426-.767-1.406-2.365-1.406-2.067 0-3.495 1.64-3.495 4.218 0 2.6 1.428 4.24 3.473 4.24zm.171-1.129c-1.577 0-2.387-1.385-2.387-3.132 0-1.726.789-3.068 2.387-3.068 1.534 0 2.344 1.236 2.344 3.068 0 1.854-.831 3.132-2.344 3.132zm14.963-4.304h-4.773v1.172h4.773v-1.172zm6.409 5.263h6.882v-1.172h-5.071v-.085l2.45-2.621c1.875-2.008 2.429-2.946 2.429-4.155 0-1.683-1.363-3.025-3.281-3.025-1.912 0-3.366 1.299-3.366 3.217h1.257c0-1.241.804-2.067 2.066-2.067 1.183 0 2.088.725 2.088 1.875 0 1.007-.591 1.753-1.853 3.132l-3.601 3.942v.959zm12.64.149c2.408 0 3.793-2.04 3.793-5.604 0-3.537-1.406-5.603-3.793-5.603s-3.792 2.066-3.792 5.603c0 3.564 1.385 5.604 3.792 5.604zm0-1.172c-1.587 0-2.514-1.593-2.514-4.432 0-2.833.937-4.453 2.514-4.453s2.514 1.62 2.514 4.453c0 2.839-.926 4.432-2.514 4.432zm9.652-9.886h-1.321l-2.727 1.811v1.342l2.663-1.768h.064v9.524h1.321v-10.909zm6.632 11.058c2.179 0 3.697-1.273 3.707-3.047-.01-1.379-.932-2.551-2.109-2.77v-.064c1.023-.266 1.694-1.267 1.704-2.429-.01-1.662-1.406-2.897-3.302-2.897-1.918 0-3.313 1.235-3.303 2.897-.01 1.162.661 2.163 1.705 2.429v.064c-1.199.219-2.12 1.391-2.109 2.77-.011 1.774 1.507 3.047 3.707 3.047zm0-1.172c-1.497 0-2.418-.767-2.408-1.939-.01-1.23 1.007-2.109 2.408-2.109 1.38 0 2.397.879 2.408 2.109-.011 1.172-.933 1.939-2.408 1.939zm0-5.177c-1.193 0-2.035-.746-2.024-1.875-.011-1.108.799-1.833 2.024-1.833 1.204 0 2.013.725 2.024 1.833-.011 1.129-.852 1.875-2.024 1.875zm7.308 4.708h-1.363l-.064.597c-.155 1.444-.458 2.882-.597 3.558h.959c.256-.724.799-2.365.98-3.579l.085-.576zm6.527 1.492h6.882v-1.172h-5.071v-.085l2.45-2.621c1.875-2.008 2.429-2.946 2.429-4.155 0-1.683-1.364-3.025-3.281-3.025s-3.367 1.299-3.367 3.217h1.257c0-1.241.805-2.067 2.067-2.067 1.183 0 2.088.725 2.088 1.875 0 1.007-.591 1.753-1.853 3.132l-3.601 3.942v.959zm12.64.149c2.408 0 3.793-2.04 3.793-5.604 0-3.537-1.407-5.603-3.793-5.603s-3.793 2.066-3.793 5.603c0 3.564 1.385 5.604 3.793 5.604zm0-1.172c-1.587 0-2.514-1.593-2.514-4.432 0-2.833.937-4.453 2.514-4.453s2.514 1.62 2.514 4.453c0 2.839-.927 4.432-2.514 4.432zm9.652-9.886h-1.321l-2.727 1.811v1.342l2.663-1.768h.064v9.524h1.321v-10.909zm6.61-.149c-2.216-.027-3.643 1.64-3.643 3.643 0 2.109 1.555 3.622 3.43 3.622 1.13 0 2.088-.554 2.685-1.449h.085c0 2.685-1.044 4.219-2.727 4.219-1.151 0-1.854-.724-2.088-1.726h-1.3c.256 1.726 1.556 2.898 3.388 2.898 2.45 0 3.963-2.173 3.963-6.051 0-4.006-2.003-5.135-3.793-5.156zm0 1.172c1.364 0 2.365 1.171 2.365 2.45 0 1.3-1.065 2.471-2.407 2.471s-2.323-1.086-2.323-2.45 1.023-2.471 2.365-2.471zm13.217 10.035c1.002 0 2.12-.352 2.829-1.076l.772.927h1.513l-1.508-1.838c.411-.527.869-1.411.869-2.935h-1.215c0 .746-.17 1.406-.453 1.955l-2.37-2.892.799-.597c.895-.66 1.449-1.385 1.449-2.429 0-1.214-1.001-2.28-2.642-2.28-1.598 0-2.642 1.002-2.642 2.472 0 .969.527 1.715 1.278 2.621-1.273.884-2.152 1.704-2.152 3.025 0 1.769 1.321 3.047 3.473 3.047zm2.078-1.987c-.602.565-1.364.879-2.12.879-1.3 0-2.152-.916-2.152-1.939 0-.298.277-1.065 1.257-1.79l.405-.298 2.61 3.148zm-2.413-4.81c-.533-.65-.986-1.268-.986-1.875 0-.682.576-1.406 1.407-1.406.788 0 1.321.639 1.321 1.193 0 .746-.405 1.151-1.023 1.555l-.719.533z"/><use xlink:href="#F"/><use xlink:href="#G"/><use xlink:href="#F" x="18.457"/><use xlink:href="#G" x="18.457"/></g><defs ><path id="B" d="M46.584 346.985h1.278c-.059-1.646-1.577-2.876-3.686-2.876-2.088 0-3.729 1.214-3.729 3.047 0 1.47 1.065 2.343 2.77 2.833l1.342.384c1.151.319 2.173.724 2.173 1.811 0 1.193-1.151 1.981-2.663 1.981-1.3 0-2.45-.575-2.557-1.811h-1.364c.128 1.79 1.577 3.005 3.92 3.005 2.514 0 3.942-1.385 3.942-3.154 0-2.045-1.939-2.706-3.068-3.004l-1.108-.298c-.81-.213-2.109-.64-2.109-1.811 0-1.044.959-1.811 2.408-1.811 1.321 0 2.323.628 2.45 1.704z"/><path id="C" d="M50.183 355.167h6.669v-1.172h-5.348v-3.707h4.922v-1.172h-4.922v-3.686h5.263v-1.172h-6.584v10.909z"/><path id="D" d="M202.169 355.337c1.662 0 2.876-.831 3.26-2.066l-1.215-.341c-.319.852-1.06 1.278-2.045 1.278-1.476 0-2.493-.953-2.552-2.706h5.94v-.533c0-3.046-1.811-4.09-3.516-4.09-2.216 0-3.686 1.747-3.686 4.261s1.449 4.197 3.814 4.197zm-2.552-4.922c.086-1.273.986-2.407 2.424-2.407 1.364 0 2.237 1.023 2.237 2.407h-4.661z"/><path id="E" d="M215.326 355.359c1.427 0 2.173-.767 2.429-1.3h.064v1.108h1.257v-5.391c0-2.599-1.982-2.897-3.026-2.897-1.236 0-2.642.426-3.281 1.917l1.193.426c.277-.596.932-1.236 2.131-1.236 1.156 0 1.726.613 1.726 1.662v.043c0 .607-.618.554-2.11.746-1.518.197-3.174.532-3.174 2.407 0 1.598 1.235 2.515 2.791 2.515zm.192-1.13c-1.002 0-1.726-.447-1.726-1.321 0-.958.873-1.257 1.853-1.385.533-.064 1.961-.213 2.174-.468v1.15c0 1.023-.81 2.024-2.301 2.024z"/><path id="F" d="M464.059 355.167h6.882v-1.172h-5.071v-.085l2.45-2.621c1.875-2.008 2.429-2.946 2.429-4.155 0-1.683-1.363-3.025-3.281-3.025-1.912 0-3.366 1.299-3.366 3.217h1.257c0-1.241.804-2.067 2.066-2.067 1.183 0 2.089.725 2.089 1.875 0 1.007-.592 1.753-1.854 3.132l-3.601 3.942v.959z"/><path id="G" d="M476.699 355.316c2.408 0 3.793-2.04 3.793-5.604 0-3.537-1.406-5.603-3.793-5.603s-3.792 2.066-3.792 5.603c0 3.564 1.385 5.604 3.792 5.604zm0-1.172c-1.587 0-2.514-1.593-2.514-4.432 0-2.833.938-4.453 2.514-4.453s2.514 1.62 2.514 4.453c0 2.839-.926 4.432-2.514 4.432z"/></defs></svg>